HIERARCHY
ROOT reference
{
  OFFSET 0 0 0
  CHANNELS 6 Xposition Yposition Zposition Zrotation Xrotation Yrotation
  JOINT Hips
  {
    OFFSET 27.8326 89.266 140.584
    CHANNELS 6 Xposition Yposition Zposition Zrotation Xrotation Yrotation
    JOINT Spine
    {
      OFFSET 0 7.81434 0
      CHANNELS 6 Xposition Yposition Zposition Zrotation Xrotation Yrotation
      JOINT Spine1
      {
        OFFSET 0 23.3781 0
        CHANNELS 6 Xposition Yposition Zposition Zrotation Xrotation Yrotation
        JOINT Neck
        {
          OFFSET 0 23.2821 2.11656
          CHANNELS 6 Xposition Yposition Zposition Zrotation Xrotation Yrotation
          JOINT Head
          {
            OFFSET 0 13.3416 -1.90594
            CHANNELS 6 Xposition Yposition Zposition Zrotation Xrotation Yrotation
            End Site
            {
              OFFSET 0 23.8242 0
            }
          }
        }
        JOINT LeftShoulder
        {
          OFFSET 3.82472 21.4916 -0.175476
          CHANNELS 6 Xposition Yposition Zposition Zrotation Xrotation Yrotation
          JOINT LeftArm
          {
            OFFSET 10.8239 0 0
            CHANNELS 6 Xposition Yposition Zposition Zrotation Xrotation Yrotation
            JOINT LeftForeArm
            {
              OFFSET 28.5356 0 0
              CHANNELS 6 Xposition Yposition Zposition Zrotation Xrotation Yrotation
              JOINT LeftHand
              {
                OFFSET 24.5315 0 0
                CHANNELS 6 Xposition Yposition Zposition Zrotation Xrotation Yrotation
                End Site
                {
                  OFFSET 14.2945 0 0
                }
              }
            }
          }
        }
        JOINT RightShoulder
        {
          OFFSET -3.77033 21.4916 -0.175476
          CHANNELS 6 Xposition Yposition Zposition Zrotation Xrotation Yrotation
          JOINT RightArm
          {
            OFFSET -10.8239 0 0
            CHANNELS 6 Xposition Yposition Zposition Zrotation Xrotation Yrotation
            JOINT RightForeArm
            {
              OFFSET -28.5356 0 0
              CHANNELS 6 Xposition Yposition Zposition Zrotation Xrotation Yrotation
              JOINT RightHand
              {
                OFFSET -24.5315 0 0
                CHANNELS 6 Xposition Yposition Zposition Zrotation Xrotation Yrotation
                End Site
                {
                  OFFSET -14.2945 0 0
                }
              }
            }
          }
        }
      }
    }
    JOINT LeftUpLeg
    {
      OFFSET 9.52968 0 0
      CHANNELS 6 Xposition Yposition Zposition Zrotation Xrotation Yrotation
      JOINT LeftLeg
      {
        OFFSET 0 -40.1884 0
        CHANNELS 6 Xposition Yposition Zposition Zrotation Xrotation Yrotation
        JOINT LeftFoot
        {
          OFFSET 0 -39.9954 0
          CHANNELS 6 Xposition Yposition Zposition Zrotation Xrotation Yrotation
          JOINT LeftToeBase
          {
            OFFSET 0 -6.19429 14.2945
            CHANNELS 6 Xposition Yposition Zposition Zrotation Xrotation Yrotation
            End Site
            {
              OFFSET 0 0 3.81187
            }
          }
        }
      }
    }
    JOINT RightUpLeg
    {
      OFFSET -9.52968 0 0
      CHANNELS 6 Xposition Yposition Zposition Zrotation Xrotation Yrotation
      JOINT RightLeg
      {
        OFFSET 0 -40.1884 0
        CHANNELS 6 Xposition Yposition Zposition Zrotation Xrotation Yrotation
        JOINT RightFoot
        {
          OFFSET 0 -39.9954 0
          CHANNELS 6 Xposition Yposition Zposition Zrotation Xrotation Yrotation
          JOINT RightToeBase
          {
            OFFSET 0 -6.19429 14.2945
            CHANNELS 6 Xposition Yposition Zposition Zrotation Xrotation Yrotation
            End Site
            {
              OFFSET 0 0 3.81187
            }
          }
        }
      }
    }
  }
}
MOTION
Frames:	7
Frame Time:	0.004
0 0 0 0 0 -0 1.79624 75.235 -166.162 -2.5288 6.90787 11.7828 0 7.81434 0 -4.59205 9.54525 -6.82834 -1.77636e-015 23.3781 2.84217e-014 7.84719 -2.1917 -7.06168 0 23.2821 2.11656 -2.9718 32.7434 11.644 0 13.3416 -1.90594 -11.2311 -16.898 8.43533 3.82472 21.4916 -0.175476 19.4678 2.40917 0.363508 10.8239 -1.42109e-014 0 -17.5262 0.3759 7.07614 28.5356 0 0 46.2316 -65.2298 -62.8694 24.5315 0 -1.42109e-014 51.8212 -39.4498 26.6631 -3.77033 21.4916 -0.175476 -9.97792 -0.304937 -1.1611 -10.8239 0 0 13.8147 -8.8577 -3.94799 -28.5356 -1.42109e-014 0 -1.19505 -24.9716 15.7254 -24.5315 0 -2.84217e-014 -33.5155 -26.6132 6.59611 9.52968 7.10543e-015 0 7.77696 10.3344 7.54141 0 -40.1884 0 5.92256 30.7247 6.31009 0 -39.9954 0 -11.9115 -4.44117 -0.487438 1.42109e-014 -6.19429 14.2945 3.18055e-015 6.36111e-015 3.18055e-015 -9.52968 7.10543e-015 0 -8.22895 -29.1156 -24.9375 0 -40.1884 -1.42109e-014 -1.94777 57.5794 -12.3379 0 -39.9954 0 11.0366 -24.4413 6.73295 0 -6.19429 14.2945 -1.19271e-015 3.18055e-015 -0 
0 0 0 0 0 -0 1.69477 75.2385 -165.543 -2.42585 6.95154 11.866 0 7.81434 0 -4.75955 9.57304 -6.74783 0 23.3781 0 7.92519 -2.26423 -6.98981 0 23.2821 2.11656 -3.19293 32.7278 11.8691 0 13.3416 -1.90594 -11.0535 -16.7736 8.69684 3.82472 21.4916 -0.175476 19.9549 2.10253 -0.011968 10.8239 0 0 -17.268 0.716669 7.37258 28.5356 0 0 50.3548 -65.2406 -59.0909 24.5315 2.84217e-014 0 53.0055 -38.6764 26.6378 -3.77033 21.4916 -0.175476 -10.1524 -0.391155 -1.32855 -10.8239 0 0 13.7283 -8.52913 -4.16506 -28.5356 -2.84217e-014 0 -0.975024 -24.7511 16.6583 -24.5315 0 0 -33.5827 -26.4548 6.72628 9.52968 0 0 7.68156 9.368 7.54202 0 -40.1884 0 6.74933 32.831 5.08179 0 -39.9954 0 -11.0894 -3.765 -0.096201 0 -6.19429 14.2945 -3.18055e-015 6.36111e-015 3.18055e-015 -9.52968 -7.10543e-015 0 -7.78397 -28.2503 -24.8286 0 -40.1884 -2.84217e-014 -2.38698 56.7885 -11.7351 0 -39.9954 -2.84217e-014 10.92 -25.6339 6.56186 0 -6.19429 14.2945 7.95139e-016 3.18055e-015 -1.27222e-014 
0 0 0 0 0 -0 1.59051 75.2314 -164.925 -2.32601 7.03115 11.9455 7.10543e-015 7.81434 0 -4.90318 9.56681 -6.65511 3.55271e-015 23.3781 0 7.95943 -2.3773 -6.90031 0 23.2821 2.11656 -3.40024 32.6488 12.0867 3.55271e-015 13.3416 -1.90594 -10.7941 -16.456 8.99556 3.82472 21.4916 -0.175476 20.3763 1.75249 -0.501561 10.8239 -1.42109e-014 0 -16.8734 0.837125 7.75568 28.5356 0 0 53.7129 -64.9099 -55.9723 24.5315 -2.84217e-014 0 54.1959 -37.6609 26.3149 -3.77033 21.4916 -0.175476 -10.254 -0.374511 -1.3801 -10.8239 2.84217e-014 0 13.832 -7.47235 -4.37424 -28.5356 0 0 -1.5164 -25.0772 17.3902 -24.5315 0 2.84217e-014 -33.5923 -26.6951 6.71897 9.52968 0 0 7.52508 8.16531 7.53544 1.42109e-014 -40.1884 -2.84217e-014 7.76198 35.2715 3.78319 -1.42109e-014 -39.9954 0 -9.98941 -2.94561 0.107222 0 -6.19429 14.2945 -3.18055e-015 6.36111e-015 -3.18055e-015 -9.52968 1.42109e-014 0 -7.34693 -27.4388 -24.4788 0 -40.1884 -1.42109e-014 -2.48423 56.0345 -11.1546 0 -39.9954 0 10.4794 -26.8359 6.04386 1.42109e-014 -6.19429 14.2945 1.19271e-015 7.95139e-016 -0 
0 0 0 0 0 -0 1.5043 75.2162 -164.325 -2.22895 7.07524 11.9975 7.10543e-015 7.81434 0 -5.01399 9.61533 -6.56127 1.77636e-015 23.3781 0 7.97879 -2.47479 -6.8107 -8.88178e-016 23.2821 2.11656 -3.85803 32.3062 12.3903 0 13.3416 -1.90594 -10.0821 -15.986 9.49172 3.82472 21.4916 -0.175476 20.6941 1.80037 -0.886493 10.8239 1.42109e-014 0 -16.4355 0.911348 8.09005 28.5356 1.42109e-014 -2.84217e-014 57.1801 -64.4802 -52.598 24.5315 2.84217e-014 -2.84217e-014 56.0173 -36.5058 26.072 -3.77033 21.4916 -0.175476 -10.3491 -0.181895 -1.40542 -10.8239 -1.42109e-014 0 13.7685 -6.67481 -4.6029 -28.5356 1.42109e-014 0 -1.87697 -25.4077 18.0956 -24.5315 -2.84217e-014 0 -32.5324 -27.045 7.2703 9.52968 0 0 7.37141 7.08653 7.42401 0 -40.1884 0 8.68137 37.5882 2.18881 0 -39.9954 0 -8.67985 -2.58132 0.433313 -1.42109e-014 -6.19429 14.2945 -6.36111e-015 3.18055e-015 6.36111e-015 -9.52968 -1.42109e-014 0 -6.97356 -26.6766 -24.0043 0 -40.1884 2.84217e-014 -2.39359 55.3869 -11.0141 0 -39.9954 0 10.2972 -27.8548 5.56445 1.42109e-014 -6.19429 14.2945 1.98785e-016 7.95139e-016 3.18055e-015 
0 0 0 0 0 -0 1.42 75.1912 -163.722 -2.14836 7.11262 12.0321 7.10543e-015 7.81434 2.84217e-014 -5.11529 9.64864 -6.44104 -3.55271e-015 23.3781 0 8.03219 -2.50787 -6.69703 4.44089e-016 23.2821 2.11656 -4.20858 32.1837 12.4739 -7.10543e-015 13.3416 -1.90594 -9.59156 -15.98 9.66456 3.82472 21.4916 -0.175476 21.0309 1.75071 -1.18588 10.8239 0 2.84217e-014 -16.1393 1.05041 8.43564 28.5356 2.84217e-014 0 59.9352 -63.8982 -49.8897 24.5315 0 0 58.3773 -35.1139 25.7384 -3.77033 21.4916 -0.175476 -10.511 -0.097718 -1.53028 -10.8239 0 2.84217e-014 13.5373 -6.16537 -4.74802 -28.5356 -1.42109e-014 0 -1.84039 -25.6428 18.9349 -24.5315 2.84217e-014 0 -32.8369 -27.3089 7.3484 9.52968 -1.42109e-014 2.84217e-014 7.22308 5.94169 7.29816 0 -40.1884 0 9.62988 40.0503 0.219603 1.42109e-014 -39.9954 -1.42109e-014 -6.66973 -2.21558 0.495875 0 -6.19429 14.2945 6.36111e-015 3.18055e-015 -1.59028e-015 -9.52968 0 2.84217e-014 -6.60665 -25.964 -23.3854 -7.10543e-015 -40.1884 0 -2.13232 54.8415 -10.9797 7.10543e-015 -39.9954 0 10.1512 -28.7553 5.11812 0 -6.19429 14.2945 0 7.95139e-016 -0 
0 0 0 0 0 -0 1.33887 75.1574 -163.124 -2.10553 7.14613 12.0477 0 7.81434 0 -5.12509 9.66907 -6.34194 0 23.3781 0 7.95594 -2.55551 -6.59804 4.44089e-016 23.2821 2.11656 -4.09793 31.8236 12.6123 0 13.3416 -1.90594 -9.5314 -15.3842 9.90682 3.82472 21.4916 -0.175476 21.8405 0.894087 -1.39954 10.8239 1.42109e-014 5.68434e-014 -16.2253 1.19893 8.84076 28.5356 -2.84217e-014 0 60.9277 -62.7438 -48.8561 24.5315 0 0 59.9749 -33.4452 24.2517 -3.77033 21.4916 -0.175476 -10.5572 -0.055524 -1.50188 -10.8239 0 2.84217e-014 13.3619 -5.36609 -4.90797 -28.5356 -2.84217e-014 0 -2.22835 -26.0632 19.5315 -24.5315 0 0 -32.3928 -27.7614 7.86508 9.52968 0 0 7.08572 4.76403 7.12517 0 -40.1884 0 10.6198 42.5188 -1.47764 0 -39.9954 0 -4.53384 -1.2486 -0.078293 1.42109e-014 -6.19429 14.2945 5.29669e-031 6.36111e-015 -4.77083e-015 -9.52968 7.10543e-015 0 -6.23315 -25.3089 -22.6737 0 -40.1884 1.42109e-014 -1.77236 54.382 -11.076 0 -39.9954 0 10.0117 -29.5397 4.7139 7.10543e-015 -6.19429 14.2945 -5.96354e-016 7.95139e-016 -0 
0 0 0 0 0 -0 1.26388 75.1143 -162.524 -2.08374 7.16055 12.0065 0 7.81434 0 -5.13545 9.69628 -6.18357 3.55271e-015 23.3781 -2.84217e-014 7.99279 -2.57738 -6.43944 0 23.2821 2.11656 -4.17535 31.5047 12.6721 0 13.3416 -1.90594 -9.31625 -14.9735 10.062 3.82472 21.4916 -0.175476 22.1838 1.2613 -1.52371 10.8239 2.84217e-014 0 -15.9519 0.760821 8.81758 28.5356 0 0 62.74 -61.564 -46.7685 24.5315 0 0 61.7702 -31.8631 23.087 -3.77033 21.4916 -0.175476 -10.7616 -0.019558 -1.55593 -10.8239 2.84217e-014 2.84217e-014 13.2101 -4.66286 -4.99433 -28.5356 1.42109e-014 0 -2.6389 -26.4209 20.0901 -24.5315 2.84217e-014 0 -32.1664 -28.1896 8.50974 9.52968 0 -2.84217e-014 6.93579 3.58544 6.91916 0 -40.1884 -2.84217e-014 11.6168 45.0565 -3.40658 0 -39.9954 0 -2.60249 -1.14751 -0.423978 0 -6.19429 14.2945 3.18055e-015 0 4.77083e-015 -9.52968 -1.42109e-014 0 -5.83721 -24.6099 -21.9344 0 -40.1884 0 -1.35671 53.9273 -10.7428 0 -39.9954 -2.84217e-014 9.52874 -30.458 3.76123 0 -6.19429 14.2945 1.98785e-016 0 -6.36111e-015 
